<svg xmlns="http://www.w3.org/2000/svg" viewBox="0 0 32 32" width="32" height="32">
    <defs>
        <linearGradient id="leafGrad" x1="0%" y1="0%" x2="100%" y2="100%">
            <stop offset="0%" stop-color="#95D5B2" />
            <stop offset="100%" stop-color="#2D6A4F" />
        </linearGradient>
        <linearGradient id="bgGrad" x1="0%" y1="0%" x2="100%" y2="100%">
            <stop offset="0%" stop-color="#1B4332" />
            <stop offset="100%" stop-color="#0F281E" />
        </linearGradient>
    </defs>
    <!-- Background Circle -->
    <circle cx="16" cy="16" r="15" fill="url(#bgGrad)" stroke="#52B788" stroke-width="1"/>
    <!-- Stylized Digital Leaf Node -->
    <path d="M16 6 C11 13 9 17 9 22 C9 26 12 27.5 16 27.5 C20 27.5 23 26 23 22 C23 17 21 13 16 6 Z" fill="url(#leafGrad)"/>
    <!-- Leaf Spine & Vein Matrix -->
    <path d="M16 7 L16 26" stroke="#FEFAE0" stroke-width="1.5" stroke-linecap="round" opacity="0.9"/>
    <path d="M16 13 L20 10 M16 17 L21 14 M16 21 L19 19" stroke="#FEFAE0" stroke-width="1" stroke-linecap="round" opacity="0.7"/>
    <path d="M16 13 L12 10 M16 17 L11 14 M16 21 L13 19" stroke="#FEFAE0" stroke-width="1" stroke-linecap="round" opacity="0.7"/>
</svg>
